<svg xmlns="http://www.w3.org/2000/svg" width="487.724" height="487.724"><g><title>Layer 1</title><g id="svg_1"><path fill="#0160e7" id="svg_2" d="m218.35369,2.98112c-96.9,3.4 -177.4,79 -186.7,175.5c-1.9,19.3 -0.8,38 2.6,55.9l0,0c0,0 0.3,2.1 1.3,6.1c3,13.4 7.5,26.4 13.1,38.6c19.5,46.2 64.6,123.5 165.8,207.6c6.2,5.2 15.3,5.2 21.6,0c101.2,-84 146.3,-161.3 165.9,-207.7c5.7,-12.2 10.1,-25.1 13.1,-38.6c0.9,-3.9 1.3,-6.1 1.3,-6.1l0,0c2.3,-12 3.5,-24.3 3.5,-36.9c0,-109.8 -90.9,-198.3 -201.5,-194.4zm6.9,291.2c-52.2,0 -94.5,-42.3 -94.5,-94.5s42.3,-94.5 94.5,-94.5s94.5,42.3 94.5,94.5s-42.3,94.5 -94.5,94.5z"></path></g></g></svg>